<svg width="19" height="21" viewBox="0 0 19 21" fill="none" xmlns="http://www.w3.org/2000/svg">
<g id="Vector">
<path d="M19 10.7386C19 9.99409 18.9383 9.27818 18.8237 8.59091H9.69388V12.6573H14.9109C14.6818 13.965 13.9944 15.0723 12.9634 15.8168V18.4609H16.1095C17.9425 16.6282 19 13.9364 19 10.7386Z" fill="#4285F4"/>
<path d="M9.69388 21C12.3112 21 14.5056 20.0645 16.1095 18.4609L12.9634 15.8168C12.0997 16.4468 10.9981 16.8286 9.69388 16.8286C7.17347 16.8286 5.032 14.9864 4.26531 12.5045H1.03989V15.2155C2.63497 18.6423 5.90445 21 9.69388 21Z" fill="#34A853"/>
<path d="M4.26531 12.495C4.07143 11.865 3.95686 11.1968 3.95686 10.5C3.95686 9.80318 4.07143 9.135 4.26531 8.505V5.79409H1.03989C0.378943 7.20682 0 8.80091 0 10.5C0 12.1991 0.378943 13.7932 1.03989 15.2059L3.55148 13.0868L4.26531 12.495Z" fill="#FBBC05"/>
<path d="M9.69388 4.18091C11.1215 4.18091 12.3905 4.71545 13.404 5.74636L16.18 2.73955C14.4968 1.04045 12.3112 0 9.69388 0C5.90445 0 2.63497 2.35773 1.03989 5.79409L4.26531 8.505C5.032 6.02318 7.17347 4.18091 9.69388 4.18091Z" fill="#EA4335"/>
</g>
</svg>
